# xmcd
#
# Track frame offsets: 
#        150
#        8759
#        15096
#        22858
#        27785
#        30291
#        37130
#        40245
#        43578
#        50442
#        55955
#        65243
#        74206
#        79990
#
# Disc length: 1175 seconds
#
# Revision: 0
# Processed by: cddbd v1.5.2PL0 Copyright (c) Steve Scherf et al.
# Submitted via: ExactAudioCopy v0.95b2
#
DISCID=b104950e
DTITLE=Tommy Flint - Country Guitar Pickin'
DYEAR=1900
DGENRE=Country
TTITLE0=Wildwood Flower
TTITLE1=Under The Double Eagle
TTITLE2=Country Boogie
TTITLE3=Frankie And Johnny
TTITLE4=Stuttering Strings
TTITLE5=The Chicken Pickin' Serenade
TTITLE6=The Tennessee Steel
TTITLE7=Steel Serenade
TTITLE8=The Letter Edged In Black
TTITLE9=The Little Rosewood Casket
TTITLE10=Over The Waves
TTITLE11=Londonderry Air
TTITLE12=In The Pines
TTITLE13=Juanita
EXTD=
EXTT0=
EXTT1=
EXTT2=
EXTT3=
EXTT4=
EXTT5=
EXTT6=
EXTT7=
EXTT8=
EXTT9=
EXTT10=
EXTT11=
EXTT12=
EXTT13=
PLAYORDER=
